<?xml version="1.0" encoding="utf-8" ?>
<svg baseProfile="tiny" height="200" version="1.2" width="300" xmlns="http://www.w3.org/2000/svg" xmlns:ev="http://www.w3.org/2001/xml-events" xmlns:xlink="http://www.w3.org/1999/xlink"><defs /><path d="M 230 40 A 30 30 0 1 1 200 70 A 20 30 0 1 0 230 40" fill="#FFD700" /><polygon fill="#FFD700" points="40.0,34.0 41.4695,37.9775 45.7063,38.1459 42.3776,40.7725 43.5267,44.8541 40.0,42.5 36.4733,44.8541 37.6224,40.7725 34.2937,38.1459 38.5305,37.9775" /><polygon fill="#FFD700" points="260.0,34.0 261.4695,37.9775 265.7063,38.1459 262.3776,40.7725 263.5267,44.8541 260.0,42.5 256.4733,44.8541 257.6224,40.7725 254.2937,38.1459 258.5305,37.9775" /><polygon fill="#FFD700" points="150.0,4.0 151.4695,7.9775 155.7063,8.1459 152.3776,10.7725 153.5267,14.8541 150.0,12.5 146.4733,14.8541 147.6224,10.7725 144.2937,8.1459 148.5305,7.9775" /><polygon fill="#FFD700" points="150.0,84.0 151.4695,87.9775 155.7063,88.1459 152.3776,90.7725 153.5267,94.8541 150.0,92.5 146.4733,94.8541 147.6224,90.7725 144.2937,88.1459 148.5305,87.9775" /><polygon fill="#FFD700" points="100.0,164.0 101.4695,167.9775 105.7063,168.1459 102.3776,170.7725 103.5267,174.8541 100.0,172.5 96.4733,174.8541 97.6224,170.7725 94.2937,168.1459 98.5305,167.9775" /><polygon fill="#FFD700" points="200.0,164.0 201.4695,167.9775 205.7063,168.1459 202.3776,170.7725 203.5267,174.8541 200.0,172.5 196.4733,174.8541 197.6224,170.7725 194.2937,168.1459 198.5305,167.9775" /><text fill="#FFD700" font-family="serif" font-size="36" text-anchor="middle" x="150.0" y="120">SOUL</text><text fill="#FFD700" font-family="serif" font-size="36" text-anchor="middle" x="150.0" y="165">DUAL</text></svg>